<svg xmlns="http://www.w3.org/2000/svg" version="1.1" id="svg1" width="1440" height="1440" viewBox="0 0 1440 1440" xmlns:svg="http://www.w3.org/2000/svg"><defs id="defs1"></defs><g id="layer-MC0" style="display:inline">
    <path id="path12" d="m 940.90353,663.42009 c 3.33445,2.30621 7.37995,2.88901 11.35372,3.79588 19.67022,4.47958 39.48184,8.45791 58.93545,13.72925 35.6245,9.64997 68.2497,26.11942 99.6838,44.98361 29.6752,17.80853 29.2866,18.17163 52.064,44.51245 23.0011,26.60121 40.6639,56.0577 53.2747,88.74501 12.4622,32.29946 25.6371,64.33139 38.7298,96.39001 8.8163,21.592 12.6234,43.83043 11.873,67.1617 -0.7771,24.1622 -0.2021,48.3669 -0.3025,72.5501 -0.057,13.7949 -1.6585,27.4269 -4.7009,40.9045 -1.9414,8.5963 -4.9104,16.8113 -8.9666,24.621 -9.0471,17.4223 -18.1446,34.8181 -27.3366,52.1644 -10.6088,20.0209 -23.6369,38.4315 -38.2052,55.817 -12.7918,15.2682 -27.822,27.6992 -45.5295,37.1593 -30.399,16.2396 -61.5948,30.856 -92.9074,45.239 -4.9192,2.2585 -10.2844,3.6522 -15.5402,5.0977 -22.6916,6.2367 -45.53692,11.9526 -68.09744,18.6162 -20.27015,5.9887 -40.98446,9.1592 -61.8599,11.8163 -15.85582,2.0173 -31.68299,4.2672 -47.52804,6.3785 -8.3398,1.1106 -16.67061,2.3469 -25.04085,3.1794 -33.53109,3.3336 -67.04068,6.4014 -100.8565,5.6805 -29.06661,-0.62 -58.15832,0.1665 -87.23024,1.5642 -20.614,0.9918 -41.24412,1.0128 -61.89392,-1.0151 -18.84824,-1.8526 -37.84513,-2.1629 -56.75248,-3.4967 -15.11442,-1.0661 -30.19659,-2.6108 -45.28415,-4.0225 -9.63276,-0.9014 -19.28881,-1.3143 -28.8911,-2.8978 -8.32725,-1.3761 -16.59362,-2.8324 -24.59494,-5.4165 -35.20191,-11.3663 -70.23728,-23.1792 -104.39873,-37.4273 -18.35935,-7.6572 -35.44186,-17.2454 -51.42482,-29.019 -29.48207,-21.7195 -56.83845,-45.8268 -83.18659,-71.1032 -2.70951,-2.5982 -5.29184,-5.4271 -7.42651,-8.4931 -16.25156,-23.3739 -31.55403,-47.3041 -44.11117,-72.8815 -12.05211,-24.55 -18.82675,-50.7457 -25.45811,-77.0472 -8.77674,-34.8168 -9.26027,-70.1609 -7.23307,-105.62382 0.71094,-12.43798 2.74529,-24.84059 6.08695,-36.95255 6.98414,-25.31189 13.988,-50.61819 20.82173,-75.96884 2.19552,-8.14439 5.76641,-15.56785 10.03568,-22.8248 17.9833,-30.55648 43.60439,-53.84005 71.99405,-74.51808 11.55787,-8.4189 23.78731,-15.79454 36.60768,-22.18004 27.08779,-13.48835 54.25434,-26.82616 81.29373,-40.40837 26.11176,-13.11816 53.9642,-20.97912 82.34135,-27.41774 30.33446,-6.88501 60.66896,-13.79303 90.5683,-22.40505 1.58843,-0.45697 3.25744,-0.90158 4.62563,-1.76064 1.00821,-0.63591 1.68515,-2.09011 0.78259,-3.2645 -1.77289,-2.30265 -3.63893,-4.56103 -5.68223,-6.6299 -12.07184,-12.23608 -24.12577,-24.49161 -36.35161,-36.57533 -6.93042,-6.85131 -12.59473,-14.52455 -17.0646,-23.12593 -5.0089,-9.63756 -9.66855,-19.49301 -15.32214,-28.7533 -7.62706,-12.49464 -10.74664,-26.09459 -12.30285,-40.30208 -2.26718,-20.7099 -4.95516,-41.37908 -6.92685,-62.11375 -3.25747,-34.2868 -1.83559,-68.28136 7.83658,-101.63469 2.32089,-8.00445 4.59162,-16.03901 6.45585,-24.15684 2.17405,-9.46219 6.00098,-18.10075 11.06362,-26.39925 20.04272,-32.86268 44.98867,-61.21213 76.24722,-84.23179 43.6133,-32.11522 86.86132,-64.71396 130.17738,-97.22241 19.8314,-14.88414 40.31285,-28.772782 61.76853,-41.272752 9.07583,-5.28553 17.94748,-10.912906 26.93555,-16.347213 22.04305,-13.325399 45.19462,-24.075334 70.53633,-29.777105 3.68729,-0.830734 7.33873,-1.88643 10.91856,-3.094439 13.30389,-4.495518 27.14328,-5.891303 41.01487,-6.245563 30.35598,-0.775807 60.70302,0.09192 90.96225,2.60733 13.82506,1.149567 27.59823,3.103305 41.32996,5.126109 19.96765,2.938566 39.93315,5.955074 59.79685,9.495875 50.877,9.065442 93.45,32.596996 125.6557,72.946898 28.2718,35.42221 52.3401,73.56863 73.3803,113.6458 12.1291,23.10289 17.2383,47.73973 18.6798,73.32952 0.6324,11.22641 0.1827,22.50951 0.4047,33.76428 0.1847,9.29927 -1.642,18.18582 -4.5932,26.96432 -7.8762,23.4359 -17.9744,45.83558 -31.597,66.57384 -7.3479,11.18387 -15.1917,22.04541 -22.5625,33.21338 -5.5855,8.45967 -12.3925,15.7627 -19.9621,22.47232 -25.1143,22.26685 -50.1876,44.57622 -75.2552,66.89267 -25.8128,22.97536 -53.9499,42.57111 -84.7895,58.4932 -27.99551,14.45373 -55.63134,29.5947 -83.40499,44.46996 -1.4255,0.76343 -3.0677,1.46664 -3.66398,3.92516" style="fill:#ff3f00;fill-opacity:1;fill-rule:nonzero;stroke:none;stroke-width:1.78103"></path>
  </g><style>@media (prefers-color-scheme: light) { :root { filter: none; } }
@media (prefers-color-scheme: dark) { :root { filter: none; } }
</style></svg>